<svg width="536" height="178" viewBox="0 0 536 178" fill="none" xmlns="http://www.w3.org/2000/svg">
<path d="M245.536 0C248.507 0 250.441 3.12558 249.115 5.78493L164.584 175.311C163.111 178.267 158.894 178.264 157.423 175.308L115 90H33.5V122.5H109L122.5 152.5H0V40C0 17.9086 17.9086 0 40 0H245.536ZM45.5 30C38.8726 30 33.5 35.3726 33.5 42V60H133L161.5 116.5L203 30H45.5Z" fill="#00428C"/>
<path d="M507.404 104.248C507.404 99.3747 508.551 95.6481 510.844 93.0681C513.195 90.4307 516.693 89.1121 521.337 89.1121C525.981 89.1121 529.449 90.4307 531.742 93.0681C534.093 95.6481 535.268 99.3747 535.268 104.248V106.14H526.324V103.646C526.324 101.467 525.895 99.9481 525.035 99.0881C524.232 98.1707 523.085 97.7121 521.594 97.7121C520.104 97.7121 518.928 98.1707 518.068 99.0881C517.266 99.9481 516.864 101.467 516.864 103.646C516.864 105.71 517.323 107.545 518.24 109.15C519.158 110.698 520.304 112.189 521.68 113.622C523.056 114.998 524.518 116.403 526.066 117.836C527.672 119.212 529.162 120.731 530.538 122.394C531.914 124.057 533.061 125.949 533.979 128.07C534.896 130.191 535.354 132.685 535.354 135.552C535.354 140.425 534.15 144.181 531.742 146.818C529.392 149.398 525.894 150.688 521.25 150.688C516.606 150.688 513.08 149.398 510.672 146.818C508.322 144.181 507.146 140.425 507.146 135.552V131.854H516.09V136.154C516.09 138.333 516.52 139.852 517.38 140.712C518.298 141.572 519.502 142.002 520.992 142.002C522.483 142.002 523.658 141.572 524.518 140.712C525.436 139.852 525.894 138.333 525.894 136.154C525.894 134.09 525.436 132.284 524.518 130.736C523.601 129.131 522.454 127.64 521.078 126.264C519.702 124.831 518.212 123.426 516.606 122.05C515.058 120.617 513.596 119.069 512.22 117.406C510.844 115.743 509.698 113.851 508.78 111.73C507.863 109.609 507.404 107.115 507.404 104.248Z" fill="#3B3B3B"/>
<path d="M485.546 115.17H498.532V123.77H485.546V141.4H501.886V150H476.086V89.8H501.886V98.4001H485.546V115.17Z" fill="#3B3B3B"/>
<path d="M460.405 150C460.29 149.599 460.175 149.226 460.061 148.882C459.946 148.538 459.831 148.108 459.717 147.592C459.659 147.076 459.602 146.417 459.545 145.614C459.545 144.811 459.545 143.808 459.545 142.604V133.144C459.545 130.335 459.057 128.357 458.083 127.21C457.108 126.063 455.531 125.49 453.353 125.49H450.085V150H440.625V89.8H454.901C459.831 89.8 463.386 90.9467 465.565 93.2401C467.801 95.5334 468.919 99.0021 468.919 103.646V108.376C468.919 114.568 466.855 118.639 462.727 120.588C465.135 121.563 466.769 123.168 467.629 125.404C468.546 127.583 469.005 130.249 469.005 133.402V142.69C469.005 144.181 469.062 145.499 469.177 146.646C469.291 147.735 469.578 148.853 470.037 150H460.405ZM450.085 98.4001V116.89H453.783C455.56 116.89 456.936 116.431 457.911 115.514C458.943 114.597 459.459 112.934 459.459 110.526V104.592C459.459 102.413 459.057 100.837 458.255 99.8621C457.509 98.8874 456.305 98.4001 454.643 98.4001H450.085Z" fill="#3B3B3B"/>
<path d="M414.529 89.8V136.24C414.529 138.419 414.959 139.938 415.819 140.798C416.736 141.658 417.94 142.088 419.431 142.088C420.922 142.088 422.097 141.658 422.957 140.798C423.874 139.938 424.333 138.419 424.333 136.24V89.8H433.277V135.638C433.277 140.511 432.073 144.267 429.665 146.904C427.314 149.484 423.817 150.774 419.173 150.774C414.529 150.774 411.003 149.484 408.595 146.904C406.244 144.267 405.069 140.511 405.069 135.638V89.8H414.529Z" fill="#3B3B3B"/>
<path d="M371.233 89.8H400.473V98.4001H390.583V150H381.123V98.4001H371.233V89.8Z" fill="#3B3B3B"/>
<path d="M344.852 106.398V150H336.338V89.8H348.206L357.924 125.834V89.8H366.352V150H356.634L344.852 106.398Z" fill="#3B3B3B"/>
<path d="M313.362 115.17H326.348V123.77H313.362V141.4H329.702V150H303.902V89.8H329.702V98.4001H313.362V115.17Z" fill="#3B3B3B"/>
<path d="M282.716 138.906L289.94 89.8H298.626L289.338 150H275.234L265.946 89.8H275.492L282.716 138.906Z" fill="#3B3B3B"/>
<path d="M378.14 52.0481L366.186 11.8H376.076L383.3 39.2341L390.524 11.8H399.554L387.6 52.0481V72.0001H378.14V52.0481Z" fill="#3B3B3B"/>
<path d="M335.64 26.2481C335.64 21.3747 336.786 17.6481 339.08 15.0681C341.43 12.4307 344.928 11.1121 349.572 11.1121C354.216 11.1121 357.684 12.4307 359.978 15.0681C362.328 17.6481 363.504 21.3747 363.504 26.2481V28.1401H354.56V25.6461C354.56 23.4674 354.13 21.9481 353.27 21.0881C352.467 20.1707 351.32 19.7121 349.83 19.7121C348.339 19.7121 347.164 20.1707 346.304 21.0881C345.501 21.9481 345.1 23.4674 345.1 25.6461C345.1 27.7101 345.558 29.5447 346.476 31.1501C347.393 32.6981 348.54 34.1887 349.916 35.6221C351.292 36.9981 352.754 38.4027 354.302 39.8361C355.907 41.2121 357.398 42.7314 358.774 44.3941C360.15 46.0567 361.296 47.9487 362.214 50.0701C363.131 52.1914 363.59 54.6854 363.59 57.5521C363.59 62.4254 362.386 66.1807 359.978 68.8181C357.627 71.3981 354.13 72.6881 349.486 72.6881C344.842 72.6881 341.316 71.3981 338.908 68.8181C336.557 66.1807 335.382 62.4254 335.382 57.5521V53.8541H344.326V58.1541C344.326 60.3327 344.756 61.8521 345.616 62.7121C346.533 63.5721 347.737 64.0021 349.228 64.0021C350.718 64.0021 351.894 63.5721 352.754 62.7121C353.671 61.8521 354.13 60.3327 354.13 58.1541C354.13 56.0901 353.671 54.2841 352.754 52.7361C351.836 51.1307 350.69 49.6401 349.314 48.2641C347.938 46.8307 346.447 45.4261 344.842 44.0501C343.294 42.6167 341.832 41.0687 340.456 39.4061C339.08 37.7434 337.933 35.8514 337.016 33.7301C336.098 31.6087 335.64 29.1147 335.64 26.2481Z" fill="#3B3B3B"/>
<path d="M331.578 72.0001H322.032L320.398 61.0781H308.788L307.154 72.0001H298.468L308.1 11.8H321.946L331.578 72.0001ZM309.992 52.9081H319.108L314.55 22.4641L309.992 52.9081Z" fill="#3B3B3B"/>
<path d="M277.9 37.1701H290.886V45.7701H277.9V63.4001H294.24V72.0001H268.44V11.8H294.24V20.4001H277.9V37.1701Z" fill="#3B3B3B"/>
</svg>
